<svg version="1.1" xmlns="http://www.w3.org/2000/svg" viewBox="0 0 1595.3046727222572 2293.9121612802487" width="1595.3046727222572" height="2293.9121612802487">
  <!-- svg-source:excalidraw -->
  
  <defs>
    <style class="style-fonts">
      @font-face {
        font-family: "Virgil";
        src: url("https://excalidraw.com/Virgil.woff2");
      }
      @font-face {
        font-family: "Cascadia";
        src: url("https://excalidraw.com/Cascadia.woff2");
      }
      @font-face {
        font-family: "Assistant";
        src: url("https://excalidraw.com/Assistant-Regular.woff2");
      }
    </style>
    
  </defs>
  <rect x="0" y="0" width="1595.3046727222572" height="2293.9121612802487" fill="#ffffff"></rect><g stroke-linecap="round" transform="translate(316.18974544145124 10) rotate(0 79.99998474121094 44.285682678222656)"><path d="M22.14 0 C54.12 0.93, 85.65 -2.37, 137.86 0 M22.14 0 C53.37 1.37, 85.2 0.64, 137.86 0 M137.86 0 C151.83 1.94, 160.1 7.48, 160 22.14 M137.86 0 C154.3 -1.79, 162.07 6.09, 160 22.14 M160 22.14 C161.36 36.16, 161.36 46.36, 160 66.43 M160 22.14 C159.37 37.16, 159.03 51.02, 160 66.43 M160 66.43 C161.56 82.52, 153.53 89, 137.86 88.57 M160 66.43 C159.25 81.91, 152.66 89.68, 137.86 88.57 M137.86 88.57 C101.25 86.13, 63.66 89.98, 22.14 88.57 M137.86 88.57 C106.45 87.56, 74.12 87.87, 22.14 88.57 M22.14 88.57 C5.91 87.14, -1.86 82.98, 0 66.43 M22.14 88.57 C8.23 89.68, 0.17 82.76, 0 66.43 M0 66.43 C0.01 54.04, 1.34 37.8, 0 22.14 M0 66.43 C0.54 56.08, -1.05 44.45, 0 22.14 M0 22.14 C1.8 7.39, 5.86 0.58, 22.14 0 M0 22.14 C-1.5 6.96, 6.03 -0.32, 22.14 0" stroke="#1971c2" stroke-width="2" fill="none"></path></g><g transform="translate(342.18974544145124 45.99998474121094) rotate(0 62.219932556152344 12.5)"><text x="0" y="0" font-family="Virgil, Segoe UI Emoji" font-size="20px" fill="#1971c2" text-anchor="start" style="white-space: pre;" direction="ltr" dominant-baseline="text-before-edge">shell process</text></g><g stroke-linecap="round" transform="translate(319.3326134834434 166.85712432861328) rotate(0 79.99998474121094 44.285682678222656)"><path d="M22.14 0 C63.87 2.06, 111.21 0.76, 137.86 0 M22.14 0 C66.08 0.62, 108.47 0.38, 137.86 0 M137.86 0 C153.47 1.59, 159.28 8.24, 160 22.14 M137.86 0 C152.41 0.9, 159.99 5.75, 160 22.14 M160 22.14 C159.77 34.73, 159.05 45.94, 160 66.43 M160 22.14 C158.87 37.43, 160.29 51.68, 160 66.43 M160 66.43 C161.91 82.15, 154.02 88.32, 137.86 88.57 M160 66.43 C161.96 81.23, 152.97 88.28, 137.86 88.57 M137.86 88.57 C93.67 85.93, 52.32 88.54, 22.14 88.57 M137.86 88.57 C101.02 88.44, 63.31 87.71, 22.14 88.57 M22.14 88.57 C7.97 86.86, 0.66 80.33, 0 66.43 M22.14 88.57 C6.4 88.18, 0.63 81.64, 0 66.43 M0 66.43 C-0.05 55.45, 1.38 43.41, 0 22.14 M0 66.43 C0.37 50.5, -0.55 34.27, 0 22.14 M0 22.14 C0.58 8.91, 6.52 -1.99, 22.14 0 M0 22.14 C0.34 8.46, 8.13 1.66, 22.14 0" stroke="#1971c2" stroke-width="2" fill="none"></path></g><g transform="translate(343.5626549873497 186.14280700683594) rotate(0 55.76994323730469 25)"><text x="55.76994323730469" y="0" font-family="Virgil, Segoe UI Emoji" font-size="20px" fill="#1971c2" text-anchor="middle" style="white-space: pre;" direction="ltr" dominant-baseline="text-before-edge">write()</text><text x="55.76994323730469" y="25" font-family="Virgil, Segoe UI Emoji" font-size="20px" fill="#1971c2" text-anchor="middle" style="white-space: pre;" direction="ltr" dominant-baseline="text-before-edge">in usermode</text></g><g stroke-linecap="round" transform="translate(324.18974544145124 331.1428985595703) rotate(0 80.57145690917969 43.428558349609375)"><path d="M21.71 0 C65.71 -0.67, 105.23 -1.16, 139.43 0 M21.71 0 C61.82 -0.39, 102.45 -0.2, 139.43 0 M139.43 0 C153.3 0.59, 162.31 7.68, 161.14 21.71 M139.43 0 C152.88 0.61, 159.73 9.3, 161.14 21.71 M161.14 21.71 C160.23 32.41, 159.22 46.7, 161.14 65.14 M161.14 21.71 C161.72 35.78, 161.02 52.05, 161.14 65.14 M161.14 65.14 C161.09 79.25, 152.76 85.98, 139.43 86.86 M161.14 65.14 C161.88 81.56, 153.91 86.8, 139.43 86.86 M139.43 86.86 C95.85 85.09, 57.96 84.32, 21.71 86.86 M139.43 86.86 C114.59 88.68, 90.1 87.3, 21.71 86.86 M21.71 86.86 C6.06 85.51, -0.05 80.63, 0 65.14 M21.71 86.86 C5.85 88.49, -1.02 78.81, 0 65.14 M0 65.14 C-0.9 50.43, -1.74 38.29, 0 21.71 M0 65.14 C-0.2 55.21, -0.41 44.44, 0 21.71 M0 21.71 C0.56 6.17, 8.18 -0.48, 21.71 0 M0 21.71 C-0.79 8.37, 5.45 -1.64, 21.71 0" stroke="#1971c2" stroke-width="2" fill="none"></path></g><g transform="translate(378.76115657426374 364.7142791748047) rotate(0 22.41998291015625 12.5)"><text x="0" y="0" font-family="Virgil, Segoe UI Emoji" font-size="20px" fill="#1971c2" text-anchor="start" style="white-space: pre;" direction="ltr" dominant-baseline="text-before-edge">ecall</text></g><g stroke-linecap="round"><g transform="translate(317.904039875045 366.6438341968055) rotate(0 -53.40713387266365 -16.264371597622187)"><path d="M-0.93 0.63 C-18.69 -4.77, -89.54 -26.38, -107.37 -32.06 M0.78 -0.08 C-17.11 -5.88, -90.89 -28.51, -108.62 -33.93" stroke="#1e1e1e" stroke-width="2" fill="none"></path></g><g transform="translate(317.904039875045 366.6438341968055) rotate(0 -53.40713387266365 -16.264371597622187)"><path d="M-78.66 -35.48 C-84.47 -36.29, -91.6 -36.83, -108.62 -33.93 M-78.66 -35.48 C-84.41 -33.9, -92.4 -34.9, -108.62 -33.93" stroke="#1e1e1e" stroke-width="2" fill="none"></path></g><g transform="translate(317.904039875045 366.6438341968055) rotate(0 -53.40713387266365 -16.264371597622187)"><path d="M-84.67 -15.86 C-89.17 -21.12, -94.92 -26.16, -108.62 -33.93 M-84.67 -15.86 C-89.26 -18.72, -95.9 -24.11, -108.62 -33.93" stroke="#1e1e1e" stroke-width="2" fill="none"></path></g></g><mask></mask><g transform="translate(10 283.93822135130097) rotate(0 131.889892578125 50)"><text x="0" y="0" font-family="Virgil, Segoe UI Emoji" font-size="20px" fill="#e03131" text-anchor="start" style="white-space: pre;" direction="ltr" dominant-baseline="text-before-edge">1. change mode to</text><text x="0" y="25" font-family="Virgil, Segoe UI Emoji" font-size="20px" fill="#e03131" text-anchor="start" style="white-space: pre;" direction="ltr" dominant-baseline="text-before-edge">supervisor mode</text><text x="0" y="50" font-family="Virgil, Segoe UI Emoji" font-size="20px" fill="#e03131" text-anchor="start" style="white-space: pre;" direction="ltr" dominant-baseline="text-before-edge">2. save pc to sepc</text><text x="0" y="75" font-family="Virgil, Segoe UI Emoji" font-size="20px" fill="#e03131" text-anchor="start" style="white-space: pre;" direction="ltr" dominant-baseline="text-before-edge">3. jump to stvec (uservec)</text></g><g stroke-linecap="round"><g transform="translate(53.33262874223249 452.4286346435547) rotate(0 354.2857208251953 0.28570556640625)"><path d="M0.57 -1.17 C118.58 -1.17, 590.45 0.15, 708.63 0.54 M-0.59 0.83 C117.21 0.98, 589.37 2.35, 707.72 2.06" stroke="#e03131" stroke-width="2" fill="none"></path></g></g><mask></mask><g stroke-linecap="round" transform="translate(323.0469842109825 513.5713348388672) rotate(0 85.42861938476562 45.142852783203125)"><path d="M22.57 0 C61.92 -3.02, 98.31 -0.17, 148.29 0 M22.57 0 C64.03 -0.12, 107.81 -1.27, 148.29 0 M148.29 0 C164.01 -1.01, 171.59 7.55, 170.86 22.57 M148.29 0 C164.01 0.44, 171.49 9, 170.86 22.57 M170.86 22.57 C169.95 39.66, 170.94 55, 170.86 67.71 M170.86 22.57 C171.57 33.97, 170.85 43.28, 170.86 67.71 M170.86 67.71 C171.71 83.59, 161.58 91.23, 148.29 90.29 M170.86 67.71 C171.22 81.19, 165.22 88.58, 148.29 90.29 M148.29 90.29 C108.81 88.26, 64.92 89.12, 22.57 90.29 M148.29 90.29 C114.75 89.96, 79.14 89.24, 22.57 90.29 M22.57 90.29 C6.5 91.34, -1.63 82.93, 0 67.71 M22.57 90.29 C9.42 90.29, -1.46 83.33, 0 67.71 M0 67.71 C0.75 54.7, -1.89 38.01, 0 22.57 M0 67.71 C-0.46 53.68, -0.35 40.3, 0 22.57 M0 22.57 C-1.62 8.32, 6.15 -0.95, 22.57 0 M0 22.57 C-2.3 6.8, 8.47 -1.24, 22.57 0" stroke="#e03131" stroke-width="2" fill="none"></path></g><g transform="translate(370.04695369340436 547.5713348388672) rotate(0 36.59996032714844 12.5)"><text x="0" y="0" font-family="Virgil, Segoe UI Emoji" font-size="20px" fill="#e03131" text-anchor="start" style="white-space: pre;" direction="ltr" dominant-baseline="text-before-edge">uservec</text></g><g stroke-linecap="round"><g transform="translate(500.76127864457624 558.7142181396484) rotate(0 32.57147216796875 -1.4285888671875)"><path d="M-1.2 -1.17 C9.7 -1.47, 54.24 -1.72, 65.18 -2.05 M0.37 0.82 C11.13 0.21, 53.16 -3.28, 64.25 -3.75" stroke="#1e1e1e" stroke-width="2" fill="none"></path></g><g transform="translate(500.76127864457624 558.7142181396484) rotate(0 32.57147216796875 -1.4285888671875)"><path d="M36.78 8.31 C42.66 5.21, 53.78 0.51, 64.25 -3.75 M36.78 8.31 C43.88 4.58, 51.03 1.71, 64.25 -3.75" stroke="#1e1e1e" stroke-width="2" fill="none"></path></g><g transform="translate(500.76127864457624 558.7142181396484) rotate(0 32.57147216796875 -1.4285888671875)"><path d="M35.45 -12.17 C41.67 -9.43, 53.17 -8.31, 64.25 -3.75 M35.45 -12.17 C42.91 -10.25, 50.42 -7.46, 64.25 -3.75" stroke="#1e1e1e" stroke-width="2" fill="none"></path></g></g><mask></mask><g transform="translate(584.618395343795 543.8570404052734) rotate(0 69.0599365234375 12.5)"><text x="0" y="0" font-family="Virgil, Segoe UI Emoji" font-size="20px" fill="#e03131" text-anchor="start" style="white-space: pre;" direction="ltr" dominant-baseline="text-before-edge">in trampoline.S</text></g><g stroke-linecap="round" transform="translate(328.7612481269981 674.7142181396484) rotate(0 81.14285278320312 41.71430969238281)"><path d="M20.86 0 C64.68 -0.54, 105.69 0, 141.43 0 M20.86 0 C65.03 0.72, 110.88 -0.28, 141.43 0 M141.43 0 C157.31 1.44, 162.55 7.27, 162.29 20.86 M141.43 0 C157.4 2.24, 159.99 7.72, 162.29 20.86 M162.29 20.86 C160.83 35.95, 160.94 47.7, 162.29 62.57 M162.29 20.86 C161.96 30.44, 163.34 39.84, 162.29 62.57 M162.29 62.57 C163.1 76.95, 155.78 83.15, 141.43 83.43 M162.29 62.57 C161.4 76.11, 156.93 82.95, 141.43 83.43 M141.43 83.43 C115.87 82.45, 88.53 83.03, 20.86 83.43 M141.43 83.43 C107.66 83.63, 72.54 84.56, 20.86 83.43 M20.86 83.43 C8.6 82.68, -1.7 74.51, 0 62.57 M20.86 83.43 C6.79 84.43, 0.44 76.25, 0 62.57 M0 62.57 C-2.14 51.94, 1.67 44.24, 0 20.86 M0 62.57 C-0.23 50.89, 0.65 39.9, 0 20.86 M0 20.86 C1.51 4.96, 6.49 1.18, 20.86 0 M0 20.86 C-0.27 5.18, 8.28 0.72, 20.86 0" stroke="#e03131" stroke-width="2" fill="none"></path></g><g transform="translate(359.9441552314903 703.9285278320312) rotate(0 49.95994567871094 12.5)"><text x="49.95994567871094" y="0" font-family="Virgil, Segoe UI Emoji" font-size="20px" fill="#e03131" text-anchor="middle" style="white-space: pre;" direction="ltr" dominant-baseline="text-before-edge">usertrap()</text></g><g stroke-linecap="round"><g transform="translate(500.1898369941856 714.1427459716797) rotate(0 32.2857666015625 -2.2856903076171875)"><path d="M-1.13 0.65 C9.31 -0.28, 52.92 -4.48, 63.81 -5.32 M0.47 -0.05 C11.2 -0.87, 55.66 -3.69, 66.12 -4.17" stroke="#1e1e1e" stroke-width="2" fill="none"></path></g><g transform="translate(500.1898369941856 714.1427459716797) rotate(0 32.2857666015625 -2.2856903076171875)"><path d="M38.55 7.66 C50.53 1.96, 59.12 -2.1, 66.12 -4.17 M38.55 7.66 C46.45 4.04, 56.88 0.14, 66.12 -4.17" stroke="#1e1e1e" stroke-width="2" fill="none"></path></g><g transform="translate(500.1898369941856 714.1427459716797) rotate(0 32.2857666015625 -2.2856903076171875)"><path d="M37.39 -12.83 C49.87 -10.4, 58.93 -6.35, 66.12 -4.17 M37.39 -12.83 C45.74 -9.92, 56.54 -7.32, 66.12 -4.17" stroke="#1e1e1e" stroke-width="2" fill="none"></path></g></g><mask></mask><g transform="translate(584.4755425605919 692.4284515380859) rotate(0 41.16996765136719 12.5)"><text x="0" y="0" font-family="Virgil, Segoe UI Emoji" font-size="20px" fill="#e03131" text-anchor="start" style="white-space: pre;" direction="ltr" dominant-baseline="text-before-edge">in trap.c</text></g><g stroke-linecap="round" transform="translate(328.19002009965436 834.1428070068359) rotate(0 83.71429443359375 45.71429443359375)"><path d="M22.86 0 C50.25 1.29, 79.2 -1.67, 144.57 0 M22.86 0 C69.13 -1.01, 116.25 -0.14, 144.57 0 M144.57 0 C161.76 0.93, 166.86 7.59, 167.43 22.86 M144.57 0 C160.42 0.7, 168.35 6.69, 167.43 22.86 M167.43 22.86 C167.48 39.33, 168.96 57.14, 167.43 68.57 M167.43 22.86 C167.09 37.92, 168.49 52.3, 167.43 68.57 M167.43 68.57 C168.15 82.62, 160.92 91.94, 144.57 91.43 M167.43 68.57 C167.62 84.61, 158.22 90.47, 144.57 91.43 M144.57 91.43 C110.71 90.82, 74.51 89.3, 22.86 91.43 M144.57 91.43 C99.1 90.57, 53.81 89.86, 22.86 91.43 M22.86 91.43 C5.78 92.53, 1.43 83.49, 0 68.57 M22.86 91.43 C6.52 92.81, 0.03 82.47, 0 68.57 M0 68.57 C-0.42 55.97, -0.21 45.54, 0 22.86 M0 68.57 C0.81 56.36, -0.15 45.2, 0 22.86 M0 22.86 C-0.87 7.57, 6.5 1.41, 22.86 0 M0 22.86 C1.14 8.92, 7.43 1.86, 22.86 0" stroke="#e03131" stroke-width="2" fill="none"></path></g><g transform="translate(371.8743539009239 867.3571014404297) rotate(0 40.02996063232422 12.5)"><text x="40.02996063232422" y="0" font-family="Virgil, Segoe UI Emoji" font-size="20px" fill="#e03131" text-anchor="middle" style="white-space: pre;" direction="ltr" dominant-baseline="text-before-edge">syscall()</text></g><g stroke-linecap="round" transform="translate(332.1898369941856 994.8570404052734) rotate(0 84.57144165039062 48.28570556640625)"><path d="M24.14 0 C59.14 -0.17, 97.62 -1.64, 145 0 M24.14 0 C65.93 1.73, 108.59 0.37, 145 0 M145 0 C162.3 -1.02, 168.25 7.15, 169.14 24.14 M145 0 C161.13 1.47, 169.03 8.67, 169.14 24.14 M169.14 24.14 C170 35.44, 168.66 48.76, 169.14 72.43 M169.14 24.14 C168.64 36.17, 169.77 47.9, 169.14 72.43 M169.14 72.43 C170.78 88.02, 161.2 94.6, 145 96.57 M169.14 72.43 C170.5 88.49, 161.6 97.02, 145 96.57 M145 96.57 C101.34 96.6, 57.11 95.55, 24.14 96.57 M145 96.57 C104.88 97.1, 63.42 96.55, 24.14 96.57 M24.14 96.57 C7.4 97.54, 0.46 86.9, 0 72.43 M24.14 96.57 C9.45 96.93, 2.2 90.59, 0 72.43 M0 72.43 C-2.18 56.19, -2.03 42.23, 0 24.14 M0 72.43 C0.39 54.76, 0.21 36.12, 0 24.14 M0 24.14 C1.01 8.62, 7.44 1.14, 24.14 0 M0 24.14 C1.86 8.55, 7.76 -0.75, 24.14 0" stroke="#e03131" stroke-width="2" fill="none"></path></g><g transform="translate(371.47554256059186 1031.428451538086) rotate(0 55.039939880371094 12.5)"><text x="0" y="0" font-family="Virgil, Segoe UI Emoji" font-size="20px" fill="#e03131" text-anchor="start" style="white-space: pre;" direction="ltr" dominant-baseline="text-before-edge">sys_write()</text></g><g stroke-linecap="round"><g transform="translate(501.90469177178875 883.9756498439697) rotate(0 124.95067365056724 -0.13590793692253555)"><path d="M0.71 -0.47 C42.16 -0.4, 207.44 -0.24, 249.16 -0.05 M-0.38 -1.76 C41.42 -2.04, 209.62 -2.16, 251.48 -2.06" stroke="#e03131" stroke-width="2" fill="none"></path></g><g transform="translate(501.90469177178875 883.9756498439697) rotate(0 124.95067365056724 -0.13590793692253555)"><path d="M223.28 8.18 C232.09 3.31, 242.77 2.9, 251.48 -2.06 M223.28 8.18 C234.11 4.73, 245.38 -0.33, 251.48 -2.06" stroke="#e03131" stroke-width="2" fill="none"></path></g><g transform="translate(501.90469177178875 883.9756498439697) rotate(0 124.95067365056724 -0.13590793692253555)"><path d="M223.29 -12.34 C232.02 -10.26, 242.7 -3.72, 251.48 -2.06 M223.29 -12.34 C234 -8.04, 245.27 -5.36, 251.48 -2.06" stroke="#e03131" stroke-width="2" fill="none"></path></g></g><mask></mask><g stroke-linecap="round" transform="translate(757.3298663449171 831.301188771336) rotate(0 83.77687515271958 43.959842074182916)"><path d="M21.98 0 C56.96 1.92, 92.65 -1.55, 145.57 0 M21.98 0 C47.32 0.05, 74.3 0.56, 145.57 0 M145.57 0 C160.57 1.08, 168.32 6.68, 167.55 21.98 M145.57 0 C159.68 1.32, 168.27 6.52, 167.55 21.98 M167.55 21.98 C168.9 33.17, 165.31 44.25, 167.55 65.94 M167.55 21.98 C167.48 36.54, 168.61 49.53, 167.55 65.94 M167.55 65.94 C166.87 80.54, 158.45 86.77, 145.57 87.92 M167.55 65.94 C169.83 78.74, 161.94 89.5, 145.57 87.92 M145.57 87.92 C117.12 85.74, 90.29 84.99, 21.98 87.92 M145.57 87.92 C110.94 88.08, 79 87.94, 21.98 87.92 M21.98 87.92 C5.49 87.46, -1.11 79.97, 0 65.94 M21.98 87.92 C5.46 90.11, -1.9 79.36, 0 65.94 M0 65.94 C-0.21 51.24, -0.78 36.8, 0 21.98 M0 65.94 C-0.1 47.92, 0 30.52, 0 21.98 M0 21.98 C1.16 5.81, 6.1 -0.01, 21.98 0 M0 21.98 C2 5.94, 7.96 0.94, 21.98 0" stroke="#e03131" stroke-width="2" fill="none"></path></g><g transform="translate(780.0268083311328 862.7610308455189) rotate(0 61.079933166503906 12.5)"><text x="61.079933166503906" y="0" font-family="Virgil, Segoe UI Emoji" font-size="20px" fill="#e03131" text-anchor="middle" style="white-space: pre;" direction="ltr" dominant-baseline="text-before-edge">usetrapret()</text></g><g stroke-linecap="round" transform="translate(757.3415847785244 619.5791299157027) rotate(0 83.77687515271958 43.959842074182916)"><path d="M21.98 0 C59.53 0.2, 101.78 0.71, 145.57 0 M21.98 0 C63.69 -0.4, 104.86 -0.67, 145.57 0 M145.57 0 C161.42 -1.97, 166.35 9.12, 167.55 21.98 M145.57 0 C159.46 0.71, 169.67 8.42, 167.55 21.98 M167.55 21.98 C166.95 38.22, 167.49 50.68, 167.55 65.94 M167.55 21.98 C166.96 36.27, 166.42 49.76, 167.55 65.94 M167.55 65.94 C167.28 80.39, 158.88 88.75, 145.57 87.92 M167.55 65.94 C166.57 80.03, 160.82 89.99, 145.57 87.92 M145.57 87.92 C112.05 88.96, 80.19 87.12, 21.98 87.92 M145.57 87.92 C119.86 89.33, 94.23 88.62, 21.98 87.92 M21.98 87.92 C6.51 87.01, 0.74 82.22, 0 65.94 M21.98 87.92 C6.93 88.48, 1.75 78.53, 0 65.94 M0 65.94 C1.96 50.84, 0.43 35.7, 0 21.98 M0 65.94 C0.3 52.83, -0.81 39.77, 0 21.98 M0 21.98 C-1.08 6.11, 5.37 0.5, 21.98 0 M0 21.98 C-1.34 6.15, 8.55 0.5, 21.98 0" stroke="#e03131" stroke-width="2" fill="none"></path></g><g transform="translate(809.1184980782167 651.0389719898856) rotate(0 31.999961853027344 12.5)"><text x="31.999961853027344" y="0" font-family="Virgil, Segoe UI Emoji" font-size="20px" fill="#e03131" text-anchor="middle" style="white-space: pre;" direction="ltr" dominant-baseline="text-before-edge">useret</text></g><g stroke-linecap="round"><g transform="translate(832.4497033887158 827.9774027034371) rotate(0 1.0835801000193896 -56.347843465420056)"><path d="M-1.03 -0.43 C-0.95 -19.02, 0.69 -93.27, 1.39 -112.02 M0.62 -1.7 C1.01 -20.59, 3.3 -95.44, 3.69 -113.79" stroke="#e03131" stroke-width="2" fill="none"></path></g><g transform="translate(832.4497033887158 827.9774027034371) rotate(0 1.0835801000193896 -56.347843465420056)"><path d="M13.2 -85.33 C9.03 -97.41, 7.29 -105.13, 3.69 -113.79 M13.2 -85.33 C11.34 -94.11, 7.97 -100.52, 3.69 -113.79" stroke="#e03131" stroke-width="2" fill="none"></path></g><g transform="translate(832.4497033887158 827.9774027034371) rotate(0 1.0835801000193896 -56.347843465420056)"><path d="M-7.31 -85.88 C-3.78 -97.57, 2.19 -105.09, 3.69 -113.79 M-7.31 -85.88 C-3.43 -94.6, -1.08 -100.85, 3.69 -113.79" stroke="#e03131" stroke-width="2" fill="none"></path></g></g><mask></mask><g stroke-linecap="round"><g transform="translate(836.7841395311666 613.4221191978836) rotate(0 -175.54535822349658 -276.8632226193869)"><path d="M-0.44 0.18 C-7.48 -79.35, 17.22 -384.82, -41.21 -477.14 C-99.63 -569.45, -299.5 -540.76, -351 -553.71 M1.53 -0.77 C-5.66 -80.14, 17.27 -383.85, -41.6 -475.78 C-100.48 -567.72, -300.41 -539.29, -351.72 -552.39" stroke="#e03131" stroke-width="2" fill="none"></path></g><g transform="translate(836.7841395311666 613.4221191978836) rotate(0 -175.54535822349658 -276.8632226193869)"><path d="M-322.94 -560.86 C-333.71 -555.94, -345.69 -554.29, -351.72 -552.39 M-322.94 -560.86 C-332.31 -558.27, -339.96 -555.45, -351.72 -552.39" stroke="#e03131" stroke-width="2" fill="none"></path></g><g transform="translate(836.7841395311666 613.4221191978836) rotate(0 -175.54535822349658 -276.8632226193869)"><path d="M-324.23 -540.38 C-334.52 -543.35, -346 -549.58, -351.72 -552.39 M-324.23 -540.38 C-333.37 -543.95, -340.63 -547.28, -351.72 -552.39" stroke="#e03131" stroke-width="2" fill="none"></path></g></g><mask></mask><g stroke-linecap="round"><g transform="translate(752.2623453974431 661.1009746360287) rotate(0 -43.34456397366114 -41.17728803124908)"><path d="M-0.29 0.28 C-14.62 -13.41, -71.3 -68.22, -85.62 -82.07 M1.76 -0.62 C-12.66 -14.7, -71.26 -70.52, -86.01 -84.04" stroke="#1e1e1e" stroke-width="2" fill="none"></path></g><g transform="translate(752.2623453974431 661.1009746360287) rotate(0 -43.34456397366114 -41.17728803124908)"><path d="M-58.43 -72.25 C-67.01 -74.4, -76.04 -79.28, -86.01 -84.04 M-58.43 -72.25 C-66.41 -74.71, -72.87 -78.84, -86.01 -84.04" stroke="#1e1e1e" stroke-width="2" fill="none"></path></g><g transform="translate(752.2623453974431 661.1009746360287) rotate(0 -43.34456397366114 -41.17728803124908)"><path d="M-72.47 -57.28 C-76.46 -64.3, -80.89 -74.08, -86.01 -84.04 M-72.47 -57.28 C-76.76 -63.68, -79.57 -71.7, -86.01 -84.04" stroke="#1e1e1e" stroke-width="2" fill="none"></path></g></g><mask></mask><g stroke-linecap="round"><g transform="translate(401.17168682163674 100.87301986154557) rotate(0 -0.5418479211963927 29.799349753925753)"><path d="M-0.83 1.11 C-1.16 10.89, -1.88 49.44, -1.84 59.17 M0.94 0.64 C0.98 10.55, 0.81 50.47, 0.47 60.48" stroke="#1971c2" stroke-width="2" fill="none"></path></g><g transform="translate(401.17168682163674 100.87301986154557) rotate(0 -0.5418479211963927 29.799349753925753)"><path d="M-9.25 32.31 C-4.26 39.9, -3.79 50.76, 0.47 60.48 M-9.25 32.31 C-6.28 39.91, -3.99 48.37, 0.47 60.48" stroke="#1971c2" stroke-width="2" fill="none"></path></g><g transform="translate(401.17168682163674 100.87301986154557) rotate(0 -0.5418479211963927 29.799349753925753)"><path d="M11.13 32.65 C9.76 40, 3.88 50.75, 0.47 60.48 M11.13 32.65 C8.21 40.21, 4.59 48.57, 0.47 60.48" stroke="#1971c2" stroke-width="2" fill="none"></path></g></g><mask></mask><g stroke-linecap="round"><g transform="translate(399.0043530080379 267.7494189933607) rotate(0 1.083666906799408 33.59205371755354)"><path d="M-0.93 -0.62 C-0.54 10.48, 1.38 55.92, 1.77 67.39 M0.78 1.67 C1.03 12.32, 0.09 54.58, 0.61 65.38" stroke="#1971c2" stroke-width="2" fill="none"></path></g><g transform="translate(399.0043530080379 267.7494189933607) rotate(0 1.083666906799408 33.59205371755354)"><path d="M-9.9 37.28 C-8.11 43.76, -4.09 50.25, 0.61 65.38 M-9.9 37.28 C-6.71 48.45, -0.91 58.08, 0.61 65.38" stroke="#1971c2" stroke-width="2" fill="none"></path></g><g transform="translate(399.0043530080379 267.7494189933607) rotate(0 1.083666906799408 33.59205371755354)"><path d="M10.62 37.1 C7.26 43.46, 6.12 50, 0.61 65.38 M10.62 37.1 C5.86 48.35, 3.72 58.05, 0.61 65.38" stroke="#1971c2" stroke-width="2" fill="none"></path></g></g><mask></mask><g stroke-linecap="round"><g transform="translate(408.7569790065189 425.9570326470541) rotate(0 1.6253701500289708 41.719107016852035)"><path d="M0.85 -0.01 C1.29 13.58, 1.57 68.64, 2.07 82.64 M-0.16 -1.05 C0.67 13.18, 3.57 69.93, 4.16 83.76" stroke="#e03131" stroke-width="2" fill="none"></path></g><g transform="translate(408.7569790065189 425.9570326470541) rotate(0 1.6253701500289708 41.719107016852035)"><path d="M-7.43 56.09 C-4.22 61.12, -2.57 71.17, 4.16 83.76 M-7.43 56.09 C-2.69 66.47, 0.85 74.33, 4.16 83.76" stroke="#e03131" stroke-width="2" fill="none"></path></g><g transform="translate(408.7569790065189 425.9570326470541) rotate(0 1.6253701500289708 41.719107016852035)"><path d="M13.06 55.11 C11.04 60.54, 7.44 70.84, 4.16 83.76 M13.06 55.11 C10.73 65.76, 7.2 73.95, 4.16 83.76" stroke="#e03131" stroke-width="2" fill="none"></path></g></g><mask></mask><g stroke-linecap="round"><g transform="translate(414.1749373778023 608.0039872130401) rotate(0 0 30.341139803935448)"><path d="M0.3 -0.11 C0.33 9.96, 0.82 50.76, 0.59 60.94 M-1 -1.21 C-1.11 8.43, -0.43 48.35, -0.04 58.96" stroke="#e03131" stroke-width="2" fill="none"></path></g><g transform="translate(414.1749373778023 608.0039872130401) rotate(0 0 30.341139803935448)"><path d="M-11.01 31.04 C-7.4 41.33, -3.12 47.95, -0.04 58.96 M-11.01 31.04 C-8.39 40.7, -4.5 49.62, -0.04 58.96" stroke="#e03131" stroke-width="2" fill="none"></path></g><g transform="translate(414.1749373778023 608.0039872130401) rotate(0 0 30.341139803935448)"><path d="M9.51 30.52 C6.26 41.04, 3.69 47.83, -0.04 58.96 M9.51 30.52 C5.44 40.45, 2.65 49.53, -0.04 58.96" stroke="#e03131" stroke-width="2" fill="none"></path></g></g><mask></mask><g stroke-linecap="round"><g transform="translate(413.091357277783 749.9573206545765) rotate(0 -1.6254280212157255 40.635469045646005)"><path d="M-0.51 -0.51 C-0.95 12.93, -2.09 68.03, -2.65 81.78 M1.42 -1.83 C0.87 11.76, -2.21 66.28, -3.28 79.92" stroke="#e03131" stroke-width="2" fill="none"></path></g><g transform="translate(413.091357277783 749.9573206545765) rotate(0 -1.6254280212157255 40.635469045646005)"><path d="M-11.67 51.12 C-9.73 60.81, -5.51 67.4, -3.28 79.92 M-11.67 51.12 C-9.7 61, -6.51 72.03, -3.28 79.92" stroke="#e03131" stroke-width="2" fill="none"></path></g><g transform="translate(413.091357277783 749.9573206545765) rotate(0 -1.6254280212157255 40.635469045646005)"><path d="M8.8 52.46 C4.59 61.66, 2.66 67.85, -3.28 79.92 M8.8 52.46 C3.46 61.83, -0.69 72.38, -3.28 79.92" stroke="#e03131" stroke-width="2" fill="none"></path></g></g><mask></mask><g stroke-linecap="round"><g transform="translate(409.84050123535155 927.6700126916719) rotate(0 1.6254280212157255 33.59202478196016)"><path d="M0.37 -0.01 C0.81 11.06, 2.66 55.13, 3.28 66.42 M-0.89 -1.06 C-0.66 10.15, 1.57 56.44, 2.35 67.56" stroke="#e03131" stroke-width="2" fill="none"></path></g><g transform="translate(409.84050123535155 927.6700126916719) rotate(0 1.6254280212157255 33.59202478196016)"><path d="M-9.49 39.99 C-5.32 49.74, -2.4 60.83, 2.35 67.56 M-9.49 39.99 C-4.75 49.27, -1.24 59.46, 2.35 67.56" stroke="#e03131" stroke-width="2" fill="none"></path></g><g transform="translate(409.84050123535155 927.6700126916719) rotate(0 1.6254280212157255 33.59202478196016)"><path d="M11 38.83 C7.93 49.05, 3.62 60.56, 2.35 67.56 M11 38.83 C8.7 48.33, 5.17 58.92, 2.35 67.56" stroke="#e03131" stroke-width="2" fill="none"></path></g></g><mask></mask><g stroke-linecap="round"><g transform="translate(743.5933573701682 596.0842010145204) rotate(0 107.27772855955675 170.6690741598494)"><path d="M0.18 0.65 C0.18 55.35, -33.27 269.31, -0.53 328.69 C32.22 388.06, 160.61 414.19, 196.63 356.92 C232.66 299.66, 248.3 44.59, 215.63 -14.91 C182.97 -74.42, 36.38 -2.63, 0.64 -0.08" stroke="#e03131" stroke-width="2.5" fill="none" stroke-dasharray="1.5 8"></path></g></g><mask></mask><g stroke-linecap="round"><g transform="translate(975.4865590590848 779.2150250364593) rotate(0 44.96996305928354 -21.672354325814013)"><path d="M0.91 -0.04 C15.74 -7.34, 73.98 -36.01, 88.76 -43.25 M-0.08 -1.11 C15.12 -8.24, 76.06 -34.8, 90.84 -41.67" stroke="#1e1e1e" stroke-width="2" fill="none"></path></g><g transform="translate(975.4865590590848 779.2150250364593) rotate(0 44.96996305928354 -21.672354325814013)"><path d="M69.32 -20.77 C75.2 -28.77, 81.47 -33.28, 90.84 -41.67 M69.32 -20.77 C75.78 -26.43, 80.81 -32.22, 90.84 -41.67" stroke="#1e1e1e" stroke-width="2" fill="none"></path></g><g transform="translate(975.4865590590848 779.2150250364593) rotate(0 44.96996305928354 -21.672354325814013)"><path d="M60.92 -39.5 C69.24 -42.31, 77.87 -41.55, 90.84 -41.67 M60.92 -39.5 C69.79 -39.89, 77.22 -40.33, 90.84 -41.67" stroke="#1e1e1e" stroke-width="2" fill="none"></path></g></g><mask></mask><g transform="translate(1081.6806496474355 706.612727745322) rotate(0 139.54986572265625 12.5)"><text x="0" y="0" font-family="Virgil, Segoe UI Emoji" font-size="20px" fill="#e03131" text-anchor="start" style="white-space: pre;" direction="ltr" dominant-baseline="text-before-edge">restore context in usermode</text></g><g transform="translate(616.6248718712529 1662.11757798706) rotate(0 47.681983947753906 22.5)"><text x="0" y="0" font-family="Virgil, Segoe UI Emoji" font-size="36px" fill="#1e1e1e" text-anchor="start" style="white-space: pre;" direction="ltr" dominant-baseline="text-before-edge">Alarm</text></g><g stroke-linecap="round" transform="translate(311.6724487755497 1786.2128233483882) rotate(0 110.28573608398438 39.42852783203125)"><path d="M19.71 0 C61.96 0.61, 101.16 -2.55, 200.86 0 M19.71 0 C77.82 0.7, 136.66 0.53, 200.86 0 M200.86 0 C214.46 -1.41, 221.49 7.51, 220.57 19.71 M200.86 0 C215.3 0.39, 221.99 8.3, 220.57 19.71 M220.57 19.71 C220.88 30.37, 219.22 42.46, 220.57 59.14 M220.57 19.71 C220.38 33.28, 219.73 46.62, 220.57 59.14 M220.57 59.14 C220.3 73.82, 212.59 79.01, 200.86 78.86 M220.57 59.14 C221.28 73.06, 213.43 79.85, 200.86 78.86 M200.86 78.86 C139.55 79.07, 80.8 75.96, 19.71 78.86 M200.86 78.86 C165.34 77.71, 127.16 79.08, 19.71 78.86 M19.71 78.86 C8.55 78.87, -0.15 74.24, 0 59.14 M19.71 78.86 C7.76 78.94, -0.1 71.29, 0 59.14 M0 59.14 C0.2 44.87, -1.3 30.06, 0 19.71 M0 59.14 C0.79 47.74, 0.91 35.06, 0 19.71 M0 19.71 C1.8 4.88, 4.82 -1.01, 19.71 0 M0 19.71 C-1.53 5.29, 5.56 1.96, 19.71 0" stroke="#1971c2" stroke-width="2" fill="none"></path></g><g transform="translate(375.67238774039345 1814.2127012780757) rotate(0 36.119956970214844 12.5)"><text x="0" y="0" font-family="Virgil, Segoe UI Emoji" font-size="20px" fill="#1971c2" text-anchor="start" style="white-space: pre;" direction="ltr" dominant-baseline="text-before-edge">process</text></g><g transform="translate(619.753834796755 2055.3557938422496) rotate(0 63.179931640625 12.5)"><text x="0" y="0" font-family="Virgil, Segoe UI Emoji" font-size="20px" fill="#e03131" text-anchor="start" style="white-space: pre;" direction="ltr" dominant-baseline="text-before-edge">time interupt</text></g><g stroke-linecap="round" transform="translate(585.4682513006612 2033.070271381312) rotate(0 98.28570556640625 34.857147216796875)"><path d="M17.43 0 C61.48 0.15, 109.33 -1.12, 179.14 0 M17.43 0 C56.19 -1.42, 96.87 -0.79, 179.14 0 M179.14 0 C192.31 1.45, 196.48 6.51, 196.57 17.43 M179.14 0 C192.53 -1.88, 197.24 7.68, 196.57 17.43 M196.57 17.43 C195.85 30.9, 196.58 40.51, 196.57 52.29 M196.57 17.43 C197.2 26.67, 197.81 38.03, 196.57 52.29 M196.57 52.29 C196.02 62.41, 192.2 71.49, 179.14 69.71 M196.57 52.29 C198.2 62.14, 190.93 69.49, 179.14 69.71 M179.14 69.71 C120.29 69.61, 63.84 68.15, 17.43 69.71 M179.14 69.71 C132.56 70.72, 84.85 70.68, 17.43 69.71 M17.43 69.71 C4.34 71.61, 0.51 64.85, 0 52.29 M17.43 69.71 C4.65 68.39, 0.44 64.87, 0 52.29 M0 52.29 C-0.18 41.74, -0.52 29.74, 0 17.43 M0 52.29 C-0.5 38.93, -0.42 26.59, 0 17.43 M0 17.43 C-0.03 4.59, 4.11 0.77, 17.43 0 M0 17.43 C-1 6.72, 5.29 -2.27, 17.43 0" stroke="#e03131" stroke-width="2" fill="none"></path></g><g transform="translate(865.508935591956 1804.376083672049) rotate(0 65.96995544433594 12.5)"><text x="0" y="0" font-family="Virgil, Segoe UI Emoji" font-size="20px" fill="#1971c2" text-anchor="start" style="white-space: pre;" direction="ltr" dominant-baseline="text-before-edge">alarm handler</text></g><g stroke-linecap="round" transform="translate(821.2232300255497 1774.9476779103302) rotate(0 101.71429443359375 38.857177734375)"><path d="M19.43 0 C70.12 0.67, 116.38 -0.9, 184 0 M19.43 0 C59.81 0.71, 100.82 -0.48, 184 0 M184 0 C196.3 1.63, 202.97 6.31, 203.43 19.43 M184 0 C196.37 1.4, 202.37 6.06, 203.43 19.43 M203.43 19.43 C202.93 34.05, 205.2 47.78, 203.43 58.29 M203.43 19.43 C203.47 30.28, 203.02 43.1, 203.43 58.29 M203.43 58.29 C202.25 72.61, 196.07 76.48, 184 77.71 M203.43 58.29 C205.72 73.31, 198.05 77.2, 184 77.71 M184 77.71 C130.47 79.46, 76.88 78.66, 19.43 77.71 M184 77.71 C120.01 78.9, 56.15 78.68, 19.43 77.71 M19.43 77.71 C8.23 79.51, -0.06 69.39, 0 58.29 M19.43 77.71 C7.79 79.17, 0.52 69.5, 0 58.29 M0 58.29 C-1.22 43.33, -0.24 29.86, 0 19.43 M0 58.29 C-0.1 47.25, 0.98 37.5, 0 19.43 M0 19.43 C-1.09 6.18, 7.7 -1.58, 19.43 0 M0 19.43 C2.23 5.75, 6.08 1.4, 19.43 0" stroke="#1971c2" stroke-width="2" fill="none"></path></g><g transform="translate(1135.5499424976479 2043.7638661776296) rotate(0 61.669952392578125 12.5)"><text x="0" y="0" font-family="Virgil, Segoe UI Emoji" font-size="20px" fill="#e03131" text-anchor="start" style="white-space: pre;" direction="ltr" dominant-baseline="text-before-edge">alarm return</text></g><g stroke-linecap="round" transform="translate(1095.8358311695229 2023.7639272127858) rotate(0 102.28570556640625 35.4287109375)"><path d="M17.71 0 C71.26 -0.64, 125.48 -0.43, 186.86 0 M17.71 0 C69.14 0.89, 117.84 0.83, 186.86 0 M186.86 0 C200.43 0.99, 205.42 4.58, 204.57 17.71 M186.86 0 C200.01 1.16, 205.97 6.89, 204.57 17.71 M204.57 17.71 C204.3 31.58, 202.97 46.69, 204.57 53.14 M204.57 17.71 C205.29 26.27, 204.11 32.68, 204.57 53.14 M204.57 53.14 C206.43 66.1, 200.35 70.08, 186.86 70.86 M204.57 53.14 C206.22 66.87, 198.44 72.94, 186.86 70.86 M186.86 70.86 C142.72 68.57, 101.99 71.53, 17.71 70.86 M186.86 70.86 C130.71 71.38, 73.29 70.92, 17.71 70.86 M17.71 70.86 C6.68 68.94, -1.47 65.99, 0 53.14 M17.71 70.86 C6.52 69.32, 0.89 63.42, 0 53.14 M0 53.14 C-0.29 42.15, -1.72 33.29, 0 17.71 M0 53.14 C1.18 45.02, -0.52 35.81, 0 17.71 M0 17.71 C-0.21 3.94, 7.18 -0.85, 17.71 0 M0 17.71 C0.8 4.88, 6.34 -0.07, 17.71 0" stroke="#e03131" stroke-width="2" fill="none"></path></g><g stroke-linecap="round" transform="translate(1364.7332005542885 1758.1721216184778) rotate(0 110.28573608398438 39.42852783203125)"><path d="M19.71 0 C79.76 0.51, 138.14 -1.04, 200.86 0 M19.71 0 C80.74 2.01, 143.1 2.14, 200.86 0 M200.86 0 C212.65 1.27, 220.22 8.42, 220.57 19.71 M200.86 0 C212.93 1.23, 222.18 6.57, 220.57 19.71 M220.57 19.71 C221.46 31.66, 221.92 43.29, 220.57 59.14 M220.57 19.71 C221.43 30, 221.65 41.63, 220.57 59.14 M220.57 59.14 C220.53 72.69, 215.39 77.82, 200.86 78.86 M220.57 59.14 C218.39 72.91, 213.22 79.19, 200.86 78.86 M200.86 78.86 C157.77 80.02, 119.21 79.69, 19.71 78.86 M200.86 78.86 C136.26 81.54, 71.32 80.19, 19.71 78.86 M19.71 78.86 C6.11 77.23, 1.37 74.11, 0 59.14 M19.71 78.86 C5.8 77.64, -0.77 70.03, 0 59.14 M0 59.14 C0.98 46.05, -0.39 29.19, 0 19.71 M0 59.14 C0.54 50.22, -0.85 40.1, 0 19.71 M0 19.71 C-1.28 8.42, 6.06 0.6, 19.71 0 M0 19.71 C-1.67 8.46, 7.09 -0.56, 19.71 0" stroke="#1971c2" stroke-width="2" fill="none"></path></g><g transform="translate(1434.6927124474246 1783.3149438841028) rotate(0 36.119956970214844 12.5)"><text x="0" y="0" font-family="Virgil, Segoe UI Emoji" font-size="20px" fill="#1971c2" text-anchor="start" style="white-space: pre;" direction="ltr" dominant-baseline="text-before-edge">process</text></g><g stroke-linecap="round"><g transform="translate(421.9939747125845 1872.2214598229975) rotate(0 89.52377319335935 78.57142130533862)"><path d="M0.58 -0.48 C30.61 25.63, 149.21 130.35, 179.11 156.5 M-0.57 -1.78 C29.4 24.5, 148.15 131.18, 178.2 157.7" stroke="#1971c2" stroke-width="2" fill="none"></path></g><g transform="translate(421.9939747125845 1872.2214598229975) rotate(0 89.52377319335935 78.57142130533862)"><path d="M150.33 146.61 C155.38 148.92, 160.99 152.7, 178.2 157.7 M150.33 146.61 C157.71 149.29, 164.01 151.59, 178.2 157.7" stroke="#1971c2" stroke-width="2" fill="none"></path></g><g transform="translate(421.9939747125845 1872.2214598229975) rotate(0 89.52377319335935 78.57142130533862)"><path d="M163.98 131.29 C166.14 136.89, 168.86 143.9, 178.2 157.7 M163.98 131.29 C168.09 137.71, 171.11 143.7, 178.2 157.7" stroke="#1971c2" stroke-width="2" fill="none"></path></g></g><mask></mask><g stroke-linecap="round"><g transform="translate(760.0892709365429 2032.2214598229975) rotate(0 62.38087972005201 -85.71428934733058)"><path d="M1.04 -1.01 C21.98 -29.49, 104.8 -143.51, 125.61 -171.81 M0.12 1.07 C20.98 -27.15, 104.18 -141.49, 125.11 -170.47" stroke="#1971c2" stroke-width="2" fill="none"></path></g><g transform="translate(760.0892709365429 2032.2214598229975) rotate(0 62.38087972005201 -85.71428934733058)"><path d="M116.86 -141.63 C117.87 -148.87, 121.37 -156.97, 125.11 -170.47 M116.86 -141.63 C119.28 -151.37, 123.26 -162.18, 125.11 -170.47" stroke="#1971c2" stroke-width="2" fill="none"></path></g><g transform="translate(760.0892709365429 2032.2214598229975) rotate(0 62.38087972005201 -85.71428934733058)"><path d="M100.25 -153.68 C106.1 -157.48, 114.56 -161.99, 125.11 -170.47 M100.25 -153.68 C108.62 -159.31, 118.43 -165.88, 125.11 -170.47" stroke="#1971c2" stroke-width="2" fill="none"></path></g></g><mask></mask><g stroke-linecap="round"><g transform="translate(992.4702523818554 1853.1739134362788) rotate(0 77.14279174804688 82.38095601399755)"><path d="M1.13 0.05 C26.83 27.44, 129.14 137.41, 154.77 164.97 M0.26 -0.97 C25.8 25.97, 128.37 135.56, 154.08 162.96" stroke="#1971c2" stroke-width="2" fill="none"></path></g><g transform="translate(992.4702523818554 1853.1739134362788) rotate(0 77.14279174804688 82.38095601399755)"><path d="M127.31 149.41 C136.79 154.69, 146.38 159.69, 154.08 162.96 M127.31 149.41 C137.79 153.96, 146.52 158.85, 154.08 162.96" stroke="#1971c2" stroke-width="2" fill="none"></path></g><g transform="translate(992.4702523818554 1853.1739134362788) rotate(0 77.14279174804688 82.38095601399755)"><path d="M142.29 135.38 C146.63 145.68, 151 155.58, 154.08 162.96 M142.29 135.38 C147.53 144.79, 150.94 154.67, 154.08 162.96" stroke="#1971c2" stroke-width="2" fill="none"></path></g></g><mask></mask><g stroke-linecap="round"><g transform="translate(1257.2320118219595 2015.0786680749507) rotate(0 72.38103230794263 -84.76193745930982)"><path d="M0.19 -0.47 C24.16 -28.68, 119.89 -140.87, 143.79 -169.04 M-1.16 -1.76 C23.18 -30.35, 121.49 -143.18, 146 -170.91" stroke="#1971c2" stroke-width="2" fill="none"></path></g><g transform="translate(1257.2320118219595 2015.0786680749507) rotate(0 72.38103230794263 -84.76193745930982)"><path d="M135.14 -142.94 C137.55 -152.91, 142.37 -161.58, 146 -170.91 M135.14 -142.94 C138.53 -150.82, 141.8 -160.19, 146 -170.91" stroke="#1971c2" stroke-width="2" fill="none"></path></g><g transform="translate(1257.2320118219595 2015.0786680749507) rotate(0 72.38103230794263 -84.76193745930982)"><path d="M119.7 -156.47 C126.73 -162.43, 136.16 -167.07, 146 -170.91 M119.7 -156.47 C127.64 -160.22, 135.58 -165.5, 146 -170.91" stroke="#1971c2" stroke-width="2" fill="none"></path></g></g><mask></mask><g transform="translate(411.75583587794904 1943.6499876550288) rotate(0 40.65997314453125 12.5)"><text x="0" y="0" font-family="Virgil, Segoe UI Emoji" font-size="20px" fill="#e03131" text-anchor="start" style="white-space: pre;" direction="ltr" dominant-baseline="text-before-edge">ticks ++</text></g><g transform="translate(684.374956157897 1925.0786172123203) rotate(0 140.47987365722656 25)"><text x="0" y="0" font-family="Virgil, Segoe UI Emoji" font-size="20px" fill="#e03131" text-anchor="start" style="white-space: pre;" direction="ltr" dominant-baseline="text-before-edge">set sepc = alarm handler</text><text x="0" y="25" font-family="Virgil, Segoe UI Emoji" font-size="20px" fill="#e03131" text-anchor="start" style="white-space: pre;" direction="ltr" dominant-baseline="text-before-edge">call usertrapret &amp;&amp; userret</text></g><g transform="translate(1022.7082894912304 1918.4119505456538) rotate(0 63.96995544433594 12.5)"><text x="0" y="0" font-family="Virgil, Segoe UI Emoji" font-size="20px" fill="#e03131" text-anchor="start" style="white-space: pre;" direction="ltr" dominant-baseline="text-before-edge">call alarmret</text></g><g transform="translate(1294.374956157897 1898.4119505456538) rotate(0 57.849937438964844 25)"><text x="0" y="0" font-family="Virgil, Segoe UI Emoji" font-size="20px" fill="#e03131" text-anchor="start" style="white-space: pre;" direction="ltr" dominant-baseline="text-before-edge">usertrapret</text><text x="0" y="25" font-family="Virgil, Segoe UI Emoji" font-size="20px" fill="#e03131" text-anchor="start" style="white-space: pre;" direction="ltr" dominant-baseline="text-before-edge">userret</text></g><g transform="translate(549.7321771255077 2202.102555709228) rotate(0 113.18991088867188 25)"><text x="0" y="0" font-family="Virgil, Segoe UI Emoji" font-size="20px" fill="#e03131" text-anchor="start" style="white-space: pre;" direction="ltr" dominant-baseline="text-before-edge">change sepc to handler</text><text x="0" y="25" font-family="Virgil, Segoe UI Emoji" font-size="20px" fill="#e03131" text-anchor="start" style="white-space: pre;" direction="ltr" dominant-baseline="text-before-edge">save the trapframe</text></g><g transform="translate(1027.4105142226763 2224.6026320031733) rotate(0 166.599853515625 12.5)"><text x="0" y="0" font-family="Virgil, Segoe UI Emoji" font-size="20px" fill="#e03131" text-anchor="start" style="white-space: pre;" direction="ltr" dominant-baseline="text-before-edge">change trapframe to previous one</text></g><g stroke-linecap="round"><g transform="translate(676.8751977553906 2174.78123612915) rotate(0 -14.999980926513672 49.642791748046875)"><path d="M0.91 -0.39 C0.62 -0.2, 24 0.26, -1.12 0.97 C-26.24 1.68, -125.27 -12.57, -149.79 3.86 C-174.32 20.29, -181.15 83.97, -148.27 99.55 C-115.39 115.12, 3.08 98.02, 47.46 97.28 C91.85 96.55, 105.86 109.17, 118.02 95.15 C130.17 81.13, 138.09 29.18, 120.4 13.17 C102.71 -2.85, 30.03 1.48, 11.86 -0.96" stroke="#1971c2" stroke-width="2.5" fill="none" stroke-dasharray="8 10"></path></g></g><mask></mask><g stroke-linecap="round"><g transform="translate(1181.874930726582 2177.6382917932124) rotate(0 2.1429061889649574 49.28577423095703)"><path d="M0.61 -0.76 C0.38 -0.82, 25.54 -0.93, -0.32 0.38 C-26.19 1.69, -126.59 -8.07, -154.57 7.11 C-182.55 22.29, -222.61 76.37, -168.18 91.46 C-113.75 106.55, 116.32 112.6, 172.01 97.65 C227.7 82.7, 192.18 18.1, 165.96 1.76 C139.74 -14.58, 39.82 0.09, 14.72 -0.4" stroke="#1971c2" stroke-width="2.5" fill="none" stroke-dasharray="8 10"></path></g></g><mask></mask><g stroke-linecap="round"><g transform="translate(703.3036492934765 2111.209687667236) rotate(0 -11.428604125976562 34.285736083984375)"><path d="M1.09 0.41 C-2.98 11.78, -19.82 57.41, -23.95 68.77" stroke="#1971c2" stroke-width="2.5" fill="none" stroke-dasharray="8 10"></path></g><g transform="translate(703.3036492934765 2111.209687667236) rotate(0 -11.428604125976562 34.285736083984375)"><path d="M-23.88 38.77 C-23.08 47.13, -23.46 57.81, -23.95 68.77" stroke="#1971c2" stroke-width="2.5" fill="none"></path></g><g transform="translate(703.3036492934765 2111.209687667236) rotate(0 -11.428604125976562 34.285736083984375)"><path d="M-4.61 45.83 C-10.39 51.97, -17.3 60.25, -23.95 68.77" stroke="#1971c2" stroke-width="2.5" fill="none"></path></g></g><mask></mask><g stroke-linecap="round"><g transform="translate(1209.7322915664258 2102.638329940185) rotate(0 -1.4285659790039062 33.571414947509766)"><path d="M1.03 0.97 C0.76 12.17, -2.17 57.3, -2.79 68.21" stroke="#1971c2" stroke-width="2.5" fill="none" stroke-dasharray="8 10"></path></g><g transform="translate(1209.7322915664258 2102.638329940185) rotate(0 -1.4285659790039062 33.571414947509766)"><path d="M-11.32 39.45 C-7.74 45.3, -5.86 51.26, -2.79 68.21" stroke="#1971c2" stroke-width="2.5" fill="none"></path></g><g transform="translate(1209.7322915664258 2102.638329940185) rotate(0 -1.4285659790039062 33.571414947509766)"><path d="M9.17 40.69 C8.6 46.47, 6.35 52.18, -2.79 68.21" stroke="#1971c2" stroke-width="2.5" fill="none"></path></g></g><mask></mask></svg>