<svg version="1.1" xmlns="http://www.w3.org/2000/svg" viewBox="0 0 1053.7144165039062 515.3953574267011" width="1053.7144165039062" height="515.3953574267011">
  <!-- svg-source:excalidraw -->
  
  <defs>
    <style class="style-fonts">
      @font-face {
        font-family: "Virgil";
        src: url("https://excalidraw.com/Virgil.woff2");
      }
      @font-face {
        font-family: "Cascadia";
        src: url("https://excalidraw.com/Cascadia.woff2");
      }
      @font-face {
        font-family: "Assistant";
        src: url("https://excalidraw.com/Assistant-Regular.woff2");
      }
    </style>
    
  </defs>
  <rect x="0" y="0" width="1053.7144165039062" height="515.3953574267011" fill="#ffffff"></rect><g stroke-linecap="round" transform="translate(41.4287109375 18) rotate(0 54.857147216796875 20.285728454589844)"><path d="M10.14 0 C35.48 -1.58, 66.29 1.06, 99.57 0 M10.14 0 C29.74 0.64, 50.9 -0.42, 99.57 0 M99.57 0 C105.12 -1.1, 110.97 3.28, 109.71 10.14 M99.57 0 C108.01 -1.73, 111.7 4.39, 109.71 10.14 M109.71 10.14 C108.65 17.01, 109.81 21.86, 109.71 30.43 M109.71 10.14 C109.49 16.85, 109.39 23.8, 109.71 30.43 M109.71 30.43 C108.08 37.27, 105.85 42.1, 99.57 40.57 M109.71 30.43 C111.28 36.82, 106.34 39.85, 99.57 40.57 M99.57 40.57 C67.46 40.64, 39.31 41.02, 10.14 40.57 M99.57 40.57 C77.61 41.36, 56.49 42.21, 10.14 40.57 M10.14 40.57 C3.16 42.43, 1.66 36.22, 0 30.43 M10.14 40.57 C5.52 42.25, 0.57 38.9, 0 30.43 M0 30.43 C-0.81 23.47, 1.17 17.88, 0 10.14 M0 30.43 C-0.18 22.38, -0.67 14.79, 0 10.14 M0 10.14 C1.95 2.69, 1.79 -1.63, 10.14 0 M0 10.14 C-0.49 2.99, 5.36 2.1, 10.14 0" stroke="#e03131" stroke-width="2" fill="none"></path></g><g transform="translate(69.07588958740234 25.785728454589844) rotate(0 27.20996856689453 12.5)"><text x="27.20996856689453" y="0" font-family="Virgil, Segoe UI Emoji" font-size="20px" fill="#e03131" text-anchor="middle" style="white-space: pre;" direction="ltr" dominant-baseline="text-before-edge">sbrk()</text></g><g stroke-linecap="round" transform="translate(44.2857666015625 122.57138061523438) rotate(0 53.71430969238281 18.571426391601562)"><path d="M9.29 0 C32.81 0.16, 53.45 -0.42, 98.14 0 M9.29 0 C30.82 0, 52.71 -1.3, 98.14 0 M98.14 0 C103.38 -0.85, 106.76 1.66, 107.43 9.29 M98.14 0 C105.23 -1.4, 108.62 3.94, 107.43 9.29 M107.43 9.29 C106.75 15.22, 108.65 22.76, 107.43 27.86 M107.43 9.29 C107.93 16.16, 107.33 20.79, 107.43 27.86 M107.43 27.86 C105.55 33.11, 103.02 35.49, 98.14 37.14 M107.43 27.86 C105.37 34.84, 105.03 37.45, 98.14 37.14 M98.14 37.14 C80.88 36.74, 61.88 39.05, 9.29 37.14 M98.14 37.14 C71.87 38.18, 48.03 37.27, 9.29 37.14 M9.29 37.14 C1.15 35.43, -1.54 32.55, 0 27.86 M9.29 37.14 C4.42 36.8, 0.5 34.18, 0 27.86 M0 27.86 C-0.39 19.98, 0.89 12.43, 0 9.29 M0 27.86 C0.89 23.68, 0.4 18.65, 0 9.29 M0 9.29 C-0.65 1.15, 3.03 1.24, 9.29 0 M0 9.29 C-0.38 3.02, 4.79 1.42, 9.29 0" stroke="#1e1e1e" stroke-width="2" fill="none"></path></g><g transform="translate(63.110107421875 128.64280700683594) rotate(0 34.88996887207031 12.5)"><text x="34.88996887207031" y="0" font-family="Virgil, Segoe UI Emoji" font-size="20px" fill="#1e1e1e" text-anchor="middle" style="white-space: pre;" direction="ltr" dominant-baseline="text-before-edge">kalloc()</text></g><g stroke-linecap="round" transform="translate(10 367.1429138183594) rotate(0 176.57159423828125 19.142868041992188)"><path d="M9.57 0 C103.7 -1.01, 195.86 -1.59, 343.57 0 M9.57 0 C135.38 -1.33, 261.83 -1.32, 343.57 0 M343.57 0 C348.6 1.97, 354.27 5.04, 353.14 9.57 M343.57 0 C350.11 0.11, 351.66 3.19, 353.14 9.57 M353.14 9.57 C351.51 13.71, 352.66 21.92, 353.14 28.71 M353.14 9.57 C353.38 16, 352.39 21.59, 353.14 28.71 M353.14 28.71 C351.77 36.9, 350.28 36.82, 343.57 38.29 M353.14 28.71 C354.2 34.23, 350.36 39.22, 343.57 38.29 M343.57 38.29 C224.32 37.47, 104.89 36.87, 9.57 38.29 M343.57 38.29 C275.17 38.83, 208.09 38.32, 9.57 38.29 M9.57 38.29 C4.35 38.7, 1.43 34.37, 0 28.71 M9.57 38.29 C3.2 39.26, -0.07 35.49, 0 28.71 M0 28.71 C0.66 25.14, -1.46 18.04, 0 9.57 M0 28.71 C-0.45 22.66, -0.85 15.65, 0 9.57 M0 9.57 C-1.9 1.57, 1.41 -0.58, 9.57 0 M0 9.57 C-0.94 5.42, 2.42 -1.94, 9.57 0" stroke="#1971c2" stroke-width="2" fill="none"></path></g><g stroke-linecap="round"><g transform="translate(207.14288330078125 368.2857360839844) rotate(0 0.2857666015625 16.571426391601562)"><path d="M0.04 -0.5 C0.12 5.15, 0.46 27.92, 0.6 33.43 M-0.61 0.44 C-0.6 5.96, -0.04 27.2, 0.19 32.62" stroke="#e03131" stroke-width="2" fill="none"></path></g></g><mask></mask><g stroke-linecap="round"><g transform="translate(252.2857666015625 367.142822265625) rotate(0 0.5714111328125 17.14288330078125)"><path d="M0.36 -0.22 C0.53 5.5, 1.44 28.7, 1.51 34.41 M-0.12 -0.8 C-0.03 4.73, 0.93 27.63, 1.27 33.51" stroke="#e03131" stroke-width="2" fill="none"></path></g></g><mask></mask><g stroke-linecap="round"><g transform="translate(304.857177734375 367.7142639160156) rotate(0 0.857147216796875 17.142852783203125)"><path d="M-0.55 0.4 C-0.29 6.02, 1.45 28.4, 1.74 34.01 M0.17 0.14 C0.34 5.79, 0.98 28.84, 1.32 34.57" stroke="#e03131" stroke-width="2" fill="none"></path></g></g><mask></mask><g stroke-linecap="round"><g transform="translate(235.71441650390625 367.7142639160156) rotate(0 -8.857177734375 8.285690307617188)"><path d="M-0.78 -0.68 C-3.65 2.14, -14.16 13.16, -16.87 16.05 M1.02 1.58 C-1.97 4.64, -14.3 14.58, -17.38 17.32" stroke="#e03131" stroke-width="2" fill="none"></path></g></g><mask></mask><g stroke-linecap="round"><g transform="translate(239.71441650390625 368.85711669921875) rotate(0 -15.142913818359375 13.428573608398438)"><path d="M0.51 -0.99 C-4.34 3.44, -24.44 22.87, -29.76 27.43 M-0.68 1.1 C-5.59 5.11, -25.69 21.21, -30.43 25.62" stroke="#e03131" stroke-width="2" fill="none"></path></g></g><mask></mask><g stroke-linecap="round"><g transform="translate(247.14288330078125 378.5714416503906) rotate(0 -14 12.5714111328125)"><path d="M0.92 0.07 C-3.81 4.26, -22.96 21.14, -27.76 25.49 M-0.06 -0.93 C-4.98 2.85, -23.82 19.34, -28.59 23.55" stroke="#e03131" stroke-width="2" fill="none"></path></g></g><mask></mask><g stroke-linecap="round"><g transform="translate(248.2857666015625 389.9999694824219) rotate(0 -6.285675048828125 5.4285736083984375)"><path d="M0.14 0.52 C-2.04 2.41, -10.89 9.23, -12.97 10.96 M-0.45 0.31 C-2.47 2.06, -9.91 8.18, -11.95 10.05" stroke="#e03131" stroke-width="2" fill="none"></path></g></g><mask></mask><g stroke-linecap="round"><g transform="translate(271.14288330078125 368.2857360839844) rotate(0 -10 7.4285430908203125)"><path d="M0.06 -0.43 C-3.18 1.99, -16.55 11.95, -19.92 14.47 M-0.58 0.53 C-3.83 3.02, -16.98 12.53, -20.3 14.96" stroke="#e03131" stroke-width="2" fill="none"></path></g></g><mask></mask><g stroke-linecap="round"><g transform="translate(286.0001220703125 367.142822265625) rotate(0 -15.428619384765625 11.714309692382812)"><path d="M0.22 0.56 C-4.72 4.17, -25.53 18.94, -30.54 22.82 M-1.13 -0.19 C-6.11 4.07, -26.49 20.39, -31.33 24.03" stroke="#e03131" stroke-width="2" fill="none"></path></g></g><mask></mask><g stroke-linecap="round"><g transform="translate(298.5714416503906 371.1429748535156) rotate(0 -21.142852783203125 13.142837524414062)"><path d="M0.77 0.78 C-6.57 5.24, -36.11 22.91, -43.45 27.04 M-0.29 0.14 C-7.32 4.24, -34.58 20.92, -41.35 25.31" stroke="#e03131" stroke-width="2" fill="none"></path></g></g><mask></mask><g stroke-linecap="round"><g transform="translate(302.0001220703125 379.142822265625) rotate(0 -16.857177734375 12)"><path d="M-0.13 0.21 C-5.95 4.42, -28.58 20.79, -34.2 24.92 M-1.65 -0.72 C-7.74 3.19, -29.89 19.3, -35.4 23.28" stroke="#e03131" stroke-width="2" fill="none"></path></g></g><mask></mask><g stroke-linecap="round"><g transform="translate(306.57147216796875 388.85711669921875) rotate(0 -8.571441650390625 6.5714263916015625)"><path d="M0.04 0.02 C-2.77 2.23, -14.46 10.49, -17.34 12.74 M-0.61 -0.45 C-3.46 1.86, -15.04 11.05, -17.87 13.24" stroke="#e03131" stroke-width="2" fill="none"></path></g></g><mask></mask><g stroke-linecap="round"><g transform="translate(322.0001220703125 366.5714416503906) rotate(0 -8.57147216796875 6.2856903076171875)"><path d="M-0.42 -0.5 C-3.28 1.61, -14.49 10.69, -17.34 12.85 M0.37 0.43 C-2.56 2.36, -15.08 9.93, -17.88 12.02" stroke="#e03131" stroke-width="2" fill="none"></path></g></g><mask></mask><g stroke-linecap="round"><g transform="translate(333.4285888671875 373.4285888671875) rotate(0 -14 12.85711669921875)"><path d="M-0.43 0.09 C-4.9 4.54, -22.65 22.15, -27.21 26.55 M1.55 -0.91 C-2.98 3.22, -22.74 20.63, -27.75 24.87" stroke="#e03131" stroke-width="2" fill="none"></path></g></g><mask></mask><g stroke-linecap="round"><g transform="translate(347.71441650390625 375.7142639160156) rotate(0 -12.857147216796875 12.857162475585938)"><path d="M-0.02 0.4 C-4.15 4.67, -20.72 20.26, -25.12 24.57 M-1.49 -0.44 C-5.69 4.03, -21.41 21.41, -25.75 25.51" stroke="#e03131" stroke-width="2" fill="none"></path></g></g><mask></mask><g stroke-linecap="round"><g transform="translate(348.2857666015625 386.5714416503906) rotate(0 -5.4285888671875 6.5714111328125)"><path d="M0.19 -0.09 C-1.61 2.12, -8.75 10.9, -10.56 13.02 M-0.38 -0.61 C-2.24 1.7, -9.08 11.4, -10.84 13.66" stroke="#e03131" stroke-width="2" fill="none"></path></g></g><mask></mask><g stroke-linecap="round"><g transform="translate(98.57156372070312 63.142822265625) rotate(0 1.142822265625 29.142860412597656)"><path d="M0.31 -0.79 C0.62 8.79, 1.64 48.67, 1.98 58.56 M-0.99 1.41 C-0.88 11.12, 0.44 46.81, 0.87 56.58" stroke="#e03131" stroke-width="2" fill="none"></path></g><g transform="translate(98.57156372070312 63.142822265625) rotate(0 1.142822265625 29.142860412597656)"><path d="M-10.18 29.59 C-7.82 37.44, -2.61 46.43, 0.87 56.58 M-10.18 29.59 C-5.93 38, -2.93 46.71, 0.87 56.58" stroke="#e03131" stroke-width="2" fill="none"></path></g><g transform="translate(98.57156372070312 63.142822265625) rotate(0 1.142822265625 29.142860412597656)"><path d="M9.75 28.8 C5.93 36.95, 4.94 46.18, 0.87 56.58 M9.75 28.8 C7.56 37.29, 4.12 46.26, 0.87 56.58" stroke="#e03131" stroke-width="2" fill="none"></path></g></g><mask></mask><g stroke-linecap="round"><g transform="translate(115.04826729254694 160.7142333984375) rotate(0 75.77121330387541 98.35716247558594)"><path d="M-0.53 -0.44 C24.8 32.56, 126.33 164.32, 151.78 197 M1.4 -1.72 C26.61 30.99, 125.9 162.01, 150.96 195.03" stroke="#e03131" stroke-width="2" fill="none"></path></g><g transform="translate(115.04826729254694 160.7142333984375) rotate(0 75.77121330387541 98.35716247558594)"><path d="M125.74 178.77 C132.04 183.89, 140.41 189.17, 150.96 195.03 M125.74 178.77 C130.9 181.52, 135.96 186.37, 150.96 195.03" stroke="#e03131" stroke-width="2" fill="none"></path></g><g transform="translate(115.04826729254694 160.7142333984375) rotate(0 75.77121330387541 98.35716247558594)"><path d="M142.09 166.37 C143.64 174.94, 147.37 183.74, 150.96 195.03 M142.09 166.37 C143.94 171.69, 145.57 179.13, 150.96 195.03" stroke="#e03131" stroke-width="2" fill="none"></path></g></g><mask></mask><g transform="translate(30.4285888671875 222.71420288085938) rotate(0 76.89994049072266 25)"><text x="0" y="0" font-family="Virgil, Segoe UI Emoji" font-size="20px" fill="#e03131" text-anchor="start" style="white-space: pre;" direction="ltr" dominant-baseline="text-before-edge">size + 3</text><text x="0" y="25" font-family="Virgil, Segoe UI Emoji" font-size="20px" fill="#e03131" text-anchor="start" style="white-space: pre;" direction="ltr" dominant-baseline="text-before-edge">but no allocate</text></g><g stroke-linecap="round" transform="translate(404.8572692871094 10) rotate(0 63.142852783203125 23.428565979003906)"><path d="M11.71 0 C47.41 -1.55, 82.99 -1.12, 114.57 0 M11.71 0 C39.68 -1.67, 66.56 -0.49, 114.57 0 M114.57 0 C122.88 0.29, 127.81 3.33, 126.29 11.71 M114.57 0 C123.92 2.13, 124.02 2.9, 126.29 11.71 M126.29 11.71 C124.8 16.95, 127.61 25.67, 126.29 35.14 M126.29 11.71 C125.84 20.98, 125.72 30.02, 126.29 35.14 M126.29 35.14 C128.23 41.46, 120.74 45.33, 114.57 46.86 M126.29 35.14 C127 40.68, 120.66 46.92, 114.57 46.86 M114.57 46.86 C71.88 46.68, 33.09 44.6, 11.71 46.86 M114.57 46.86 C90.62 47.67, 66.22 47.65, 11.71 46.86 M11.71 46.86 C3.5 47.9, 1.32 41.37, 0 35.14 M11.71 46.86 C4.4 48.61, -0.95 43.89, 0 35.14 M0 35.14 C-0.45 26.96, 1.05 21.88, 0 11.71 M0 35.14 C0.51 27.57, 0.06 20.29, 0 11.71 M0 11.71 C-1.27 3.82, 3.5 0.15, 11.71 0 M0 11.71 C0.91 1.82, 3.75 -2.04, 11.71 0" stroke="#1971c2" stroke-width="2" fill="none"></path></g><g transform="translate(431.88016510009766 20.928565979003906) rotate(0 36.119956970214844 12.5)"><text x="36.119956970214844" y="0" font-family="Virgil, Segoe UI Emoji" font-size="20px" fill="#1971c2" text-anchor="middle" style="white-space: pre;" direction="ltr" dominant-baseline="text-before-edge">process</text></g><g stroke-linecap="round"><g transform="translate(468.28582763671875 62.5714111328125) rotate(0 -93.84140152194806 149.42861938476562)"><path d="M-0.81 0.39 C-27.23 21.94, -126.37 80.5, -157.58 130.25 C-188.78 180, -182.91 270.84, -188.04 298.89 M0.97 -0.46 C-25.63 21.11, -126.49 81.05, -158.15 131.16 C-189.81 181.28, -183.94 272.18, -188.99 300.23" stroke="#1971c2" stroke-width="2" fill="none"></path></g><g transform="translate(468.28582763671875 62.5714111328125) rotate(0 -93.84140152194806 149.42861938476562)"><path d="M-197.15 271.36 C-193.19 283.52, -192.71 292.68, -188.99 300.23 M-197.15 271.36 C-194.86 280.99, -191.56 288.69, -188.99 300.23" stroke="#1971c2" stroke-width="2" fill="none"></path></g><g transform="translate(468.28582763671875 62.5714111328125) rotate(0 -93.84140152194806 149.42861938476562)"><path d="M-176.68 272.87 C-180.48 284.32, -187.75 292.91, -188.99 300.23 M-176.68 272.87 C-180.59 281.99, -183.48 289.23, -188.99 300.23" stroke="#1971c2" stroke-width="2" fill="none"></path></g></g><mask></mask><g transform="translate(171.00003051757812 204.85711669921875) rotate(0 24.189971923828125 12.5)"><text x="0" y="0" font-family="Virgil, Segoe UI Emoji" font-size="20px" fill="#1971c2" text-anchor="start" style="white-space: pre;" direction="ltr" dominant-baseline="text-before-edge">step1</text></g><g transform="translate(292.857177734375 125.57135009765625) rotate(0 28.59996795654297 12.5)"><text x="0" y="0" font-family="Virgil, Segoe UI Emoji" font-size="20px" fill="#1971c2" text-anchor="start" style="white-space: pre;" direction="ltr" dominant-baseline="text-before-edge">step2</text></g><g stroke-linecap="round"><g transform="translate(285.4286193847656 360.28570556640625) rotate(0 180.2857666015625 -50.5714111328125)"><path d="M-0.63 1.17 C16.65 -13.09, 42.41 -69.14, 102.73 -86.2 C163.06 -103.26, 318.56 -98.76, 361.35 -101.2 M1.25 0.74 C18.53 -13.36, 42.37 -68.44, 102.32 -85.22 C162.28 -101.99, 318.19 -97.52, 360.99 -99.91" stroke="#1971c2" stroke-width="2" fill="none"></path></g><g transform="translate(285.4286193847656 360.28570556640625) rotate(0 180.2857666015625 -50.5714111328125)"><path d="M332.97 -89.18 C341.25 -89.74, 343.81 -92.55, 360.99 -99.91 M332.97 -89.18 C341.68 -93.02, 349.68 -96.46, 360.99 -99.91" stroke="#1971c2" stroke-width="2" fill="none"></path></g><g transform="translate(285.4286193847656 360.28570556640625) rotate(0 180.2857666015625 -50.5714111328125)"><path d="M332.63 -109.7 C340.87 -105.66, 343.51 -103.88, 360.99 -99.91 M332.63 -109.7 C341.24 -107.48, 349.34 -104.87, 360.99 -99.91" stroke="#1971c2" stroke-width="2" fill="none"></path></g></g><mask></mask><g transform="translate(316.8572235107422 227.28568267822266) rotate(0 169.0698699951172 12.5)"><text x="0" y="0" font-family="Virgil, Segoe UI Emoji" font-size="20px" fill="#1971c2" text-anchor="start" style="white-space: pre;" direction="ltr" dominant-baseline="text-before-edge">step3 hardware find a page fault</text></g><g stroke-linecap="round" transform="translate(685.4285888671875 211.14297485351562) rotate(0 179.14291381835938 28.571395874023438)"><path d="M14.29 0 C120.72 1.96, 225.69 2.49, 344 0 M14.29 0 C118.65 -1.65, 221.87 -1.53, 344 0 M344 0 C351.9 1.54, 357.95 6.72, 358.29 14.29 M344 0 C354.93 1.78, 358.08 2.88, 358.29 14.29 M358.29 14.29 C359.31 22.33, 357.18 29.69, 358.29 42.86 M358.29 14.29 C359.23 20.96, 357.49 27.82, 358.29 42.86 M358.29 42.86 C356.39 53.03, 354.71 55.99, 344 57.14 M358.29 42.86 C357.3 51.77, 351.82 56.42, 344 57.14 M344 57.14 C237.47 57.44, 131.74 58.44, 14.29 57.14 M344 57.14 C254.13 57.21, 165.35 57.96, 14.29 57.14 M14.29 57.14 C5.99 55.83, -1.35 51.87, 0 42.86 M14.29 57.14 C7.04 59.14, -2.16 52.92, 0 42.86 M0 42.86 C1.5 33.56, -0.49 25.42, 0 14.29 M0 42.86 C0.26 31.68, -0.16 20.91, 0 14.29 M0 14.29 C1.85 5.71, 3.88 0.28, 14.29 0 M0 14.29 C-1.59 5.87, 2.75 -0.45, 14.29 0" stroke="#1971c2" stroke-width="2" fill="none"></path></g><g transform="translate(697.4286499023438 232.14291381835938) rotate(0 162.0498809814453 12.5)"><text x="0" y="0" font-family="Virgil, Segoe UI Emoji" font-size="20px" fill="#1971c2" text-anchor="start" style="white-space: pre;" direction="ltr" dominant-baseline="text-before-edge">usertrap &amp;&amp; s_cause() == 13/15</text></g><g stroke-linecap="round"><g transform="translate(775.9123636881511 274.10360378689234) rotate(0 -248.5714340209961 113.92860412597656)"><path d="M-0.38 0.61 C-20.04 31.28, -46.87 147.07, -116.99 184.89 C-187.1 222.72, -357.79 236.09, -421.09 227.55 C-484.4 219.02, -484.01 149.4, -496.81 133.68 M1.62 -0.11 C-18.2 30.67, -46.86 148.24, -117.48 186.38 C-188.09 224.51, -358.91 237.36, -422.06 228.71 C-485.21 220.06, -484.05 150.4, -496.39 134.47" stroke="#1971c2" stroke-width="2" fill="none"></path></g><g transform="translate(775.9123636881511 274.10360378689234) rotate(0 -248.5714340209961 113.92860412597656)"><path d="M-476.96 157.32 C-483.5 150.02, -492.09 139.24, -496.39 134.47 M-476.96 157.32 C-482.98 150.09, -487.51 143.67, -496.39 134.47" stroke="#1971c2" stroke-width="2" fill="none"></path></g><g transform="translate(775.9123636881511 274.10360378689234) rotate(0 -248.5714340209961 113.92860412597656)"><path d="M-496.19 164.47 C-495.47 154.5, -496.75 141, -496.39 134.47 M-496.19 164.47 C-496.96 155.37, -496.2 146.99, -496.39 134.47" stroke="#1971c2" stroke-width="2" fill="none"></path></g></g><mask></mask><g stroke-linecap="round" transform="translate(498.7695337931316 440.5321316189236) rotate(0 26.071453094482422 22.142906188964844)"><path d="M11.07 0 C22.25 1.96, 27.82 -1.38, 41.07 0 M11.07 0 C19.48 1.07, 27.01 -0.41, 41.07 0 M41.07 0 C47.03 -0.16, 53.48 2.08, 52.14 11.07 M41.07 0 C46.84 -1, 50.43 5.36, 52.14 11.07 M52.14 11.07 C52.16 15.91, 53.76 25.1, 52.14 33.21 M52.14 11.07 C51.83 17.12, 51.92 21.51, 52.14 33.21 M52.14 33.21 C52.35 42.45, 46.48 42.65, 41.07 44.29 M52.14 33.21 C53.25 40.64, 48.44 44.19, 41.07 44.29 M41.07 44.29 C34.81 45.91, 24.65 43.68, 11.07 44.29 M41.07 44.29 C28.58 45, 18.2 44.69, 11.07 44.29 M11.07 44.29 C4.06 45.47, -0.81 42.07, 0 33.21 M11.07 44.29 C5.44 45.38, 0.59 41.67, 0 33.21 M0 33.21 C1.79 24.97, -1.45 18.14, 0 11.07 M0 33.21 C0.22 28.99, -0.73 21.82, 0 11.07 M0 11.07 C0.71 2.17, 5.27 -1.77, 11.07 0 M0 11.07 C1.44 2.69, 1.88 1.55, 11.07 0" stroke="#1971c2" stroke-width="2" fill="none"></path></g><g transform="translate(508.5310045878093 450.17503780788843) rotate(0 16.309982299804688 12.5)"><text x="16.309982299804688" y="0" font-family="Virgil, Segoe UI Emoji" font-size="20px" fill="#1971c2" text-anchor="middle" style="white-space: pre;" direction="ltr" dominant-baseline="text-before-edge">ovo</text></g><g transform="translate(327.16232554117846 458.3893398708767) rotate(0 79.02994537353516 12.5)"><text x="0" y="0" font-family="Virgil, Segoe UI Emoji" font-size="20px" fill="#1971c2" text-anchor="start" style="white-space: pre;" direction="ltr" dominant-baseline="text-before-edge">allocate a page</text></g><g transform="translate(668.5908915201824 353.7463955349392) rotate(0 27.879966735839844 12.5)"><text x="0" y="0" font-family="Virgil, Segoe UI Emoji" font-size="20px" fill="#1971c2" text-anchor="start" style="white-space: pre;" direction="ltr" dominant-baseline="text-before-edge">step4</text></g></svg>